<svg width="52" height="52" viewBox="0 0 52 52" fill="none" xmlns="http://www.w3.org/2000/svg">
<rect width="52" height="52" rx="8" fill="#D6E4FF"/>
<path d="M18.676 23.9957L13.8988 27.2617C13.5089 27.5542 12.9727 27.4567 12.6802 27.0668L6.34316 17.9512C6.05068 17.5612 6.14817 17.025 6.53814 16.7813L11.3153 13.5153C11.7053 13.2228 12.2415 13.3203 12.5339 13.7103L18.9197 22.8258C19.1634 23.2158 19.0659 23.752 18.676 23.9957Z" fill="white" stroke="#1A3365" stroke-width="1.099" stroke-miterlimit="10"/>
<path d="M24.5252 25.5556C26.8943 25.5556 28.8149 23.6569 28.8149 21.3147C28.8149 18.9725 26.8943 17.0737 24.5252 17.0737C22.1561 17.0737 20.2355 18.9725 20.2355 21.3147C20.2355 23.6569 22.1561 25.5556 24.5252 25.5556Z" fill="white" stroke="#1A3365" stroke-width="1.099" stroke-miterlimit="10"/>
<path d="M45.145 24.2885H6.44036C5.8554 24.2885 5.41669 23.801 5.41669 23.2648V21.4612C5.41669 20.8762 5.90415 20.4375 6.44036 20.4375H45.145C45.7299 20.4375 46.1686 20.925 46.1686 21.4612V23.2648C46.2174 23.801 45.7299 24.2885 45.145 24.2885Z" fill="white" stroke="#1A3365" stroke-width="1.099" stroke-miterlimit="10"/>
<path d="M38.1252 41.9347H13.3133C12.2408 41.9347 11.3147 41.2036 11.1197 40.1311L7.51245 24.2886H43.926L40.3187 40.1311C40.1238 41.2036 39.1976 41.9347 38.1252 41.9347Z" fill="white" stroke="#1A3365" stroke-width="1.099" stroke-miterlimit="10"/>
<path d="M21.0642 28.0419V38.0837C21.0642 38.5711 20.6743 39.0098 20.1381 39.0098H19.2119C18.7244 39.0098 18.2857 38.6199 18.2857 38.0837V28.0419C18.2857 27.5544 18.6757 27.1157 19.2119 27.1157H20.1381C20.6255 27.1157 21.0642 27.5544 21.0642 28.0419Z" fill="white" stroke="#1A3365" stroke-width="1.099" stroke-miterlimit="10"/>
<path d="M27.255 28.0419V38.0837C27.255 38.5711 26.8651 39.0098 26.3289 39.0098H25.4027C24.9152 39.0098 24.4765 38.6199 24.4765 38.0837V28.0419C24.4765 27.5544 24.8665 27.1157 25.4027 27.1157H26.3289C26.8651 27.1157 27.255 27.5544 27.255 28.0419Z" fill="white" stroke="#1A3365" stroke-width="1.099" stroke-miterlimit="10"/>
<path d="M33.3976 28.0419V38.0837C33.3976 38.5711 33.0076 39.0098 32.4714 39.0098H31.5452C31.0577 39.0098 30.619 38.6199 30.619 38.0837V28.0419C30.619 27.5544 31.009 27.1157 31.5452 27.1157H32.4714C32.9588 27.1157 33.3976 27.5544 33.3976 28.0419Z" fill="white" stroke="#1A3365" stroke-width="1.099" stroke-miterlimit="10"/>
<path d="M23.55 13.3692L14.5319 22.9235C14.0444 23.411 13.2645 23.4597 12.777 22.9722L12.2896 22.5335C11.8021 22.0948 11.7534 21.3149 12.2408 20.7787L21.2589 11.2244C21.7464 10.7369 22.5263 10.6882 23.0138 11.1756L23.5012 11.6144C23.9887 12.0531 23.9887 12.833 23.55 13.3692Z" fill="white" stroke="#1A3365" stroke-width="1.099" stroke-miterlimit="10"/>
<path d="M25.7435 13.3692L34.7615 22.9235C35.249 23.411 36.029 23.4597 36.5164 22.9722L37.0039 22.5335C37.4913 22.0948 37.5401 21.3149 37.0526 20.7787L28.0345 11.2244C27.5471 10.7369 26.7671 10.6882 26.2797 11.1756L25.7922 11.6144C25.3048 12.0531 25.3048 12.833 25.7435 13.3692Z" fill="white" stroke="#1A3365" stroke-width="1.099" stroke-miterlimit="10"/>
<path d="M41.3911 30.3331C45.2948 30.3331 48.4593 27.2122 48.4593 23.3623C48.4593 19.5125 45.2948 16.3916 41.3911 16.3916C37.4874 16.3916 34.3229 19.5125 34.3229 23.3623C34.3229 27.2122 37.4874 30.3331 41.3911 30.3331Z" fill="#2196F3"/>
<path d="M44.9984 22.7777C45.1446 22.924 45.2421 23.1189 45.2421 23.3627C45.2421 23.6064 45.1446 23.8014 44.9984 23.9476C44.8521 24.0939 44.6571 24.1914 44.4134 24.1914H42.2198V26.385C42.2198 26.6287 42.1223 26.8237 41.9761 26.9699C41.8298 27.1162 41.6349 27.2136 41.3911 27.2136C41.1474 27.2136 40.9524 27.1162 40.8062 26.9699C40.6599 26.8237 40.5624 26.6287 40.5624 26.385V24.1914H38.3689C38.1251 24.1914 37.9301 24.0939 37.7839 23.9476C37.6377 23.8014 37.5402 23.6064 37.5402 23.3627C37.5402 23.1189 37.6377 22.924 37.7839 22.7777C37.9301 22.6315 38.1251 22.534 38.3689 22.534H40.5624V20.3404C40.5624 20.0967 40.6599 19.9017 40.8062 19.7555C40.9524 19.6092 41.1474 19.5117 41.3911 19.5117C41.6349 19.5117 41.8298 19.6092 41.9761 19.7555C42.1223 19.9017 42.2198 20.0967 42.2198 20.3404V22.534H44.4134C44.6571 22.534 44.8521 22.6315 44.9984 22.7777Z" fill="white"/>
</svg>
