<svg width="16" height="13" viewBox="0 0 16 13" fill="none" xmlns="http://www.w3.org/2000/svg">
  <path fill-rule="evenodd" clip-rule="evenodd" d="M15.04 9.86662L9.92665 1.38663C9.50646 0.729292 8.78014 0.331543 7.99999 0.331543C7.21983 0.331543 6.49351 0.729292 6.07332 1.38663L0.959986 9.86662C0.59235 10.4795 0.579643 11.2419 0.926652 11.8666C1.32797 12.5701 2.07681 13.0031 2.88665 13H13.1133C13.9177 13.0085 14.6652 12.5865 15.0733 11.8933C15.4307 11.2617 15.418 10.4861 15.04 9.86662ZM8.00002 10.3333C7.63183 10.3333 7.33335 10.0348 7.33335 9.66665C7.33335 9.29846 7.63183 8.99998 8.00002 8.99998C8.36821 8.99998 8.66669 9.29846 8.66669 9.66665C8.66669 10.0348 8.36821 10.3333 8.00002 10.3333ZM8.00002 8.33331C8.36821 8.33331 8.66669 8.03483 8.66669 7.66665V4.99998C8.66669 4.63179 8.36821 4.33331 8.00002 4.33331C7.63183 4.33331 7.33335 4.63179 7.33335 4.99998V7.66665C7.33335 8.03483 7.63183 8.33331 8.00002 8.33331Z" fill="#FF4842"/>
</svg>