<svg height="32" width="32" id="Layer_1" xmlns="http://www.w3.org/2000/svg" xmlns:xlink="http://www.w3.org/1999/xlink" viewBox="0 0 16 8"><defs><style>.cls-1{fill:url(#linear-gradient-4);}.cls-1,.cls-2,.cls-3,.cls-4,.cls-5{isolation:isolate;}.cls-1,.cls-2,.cls-5{opacity:.4;}.cls-2{fill:url(#linear-gradient-5);}.cls-3{fill:url(#linear-gradient-2);}.cls-3,.cls-4{opacity:.35;}.cls-6{fill:url(#linear-gradient);}.cls-4{fill:url(#linear-gradient-6);}.cls-5{fill:url(#linear-gradient-3);}</style><linearGradient id="linear-gradient" x1=".91" y1="2285.86" x2="15.46" y2="2288.42" gradientTransform="translate(0 -2283)" gradientUnits="userSpaceOnUse"><stop offset=".05" stop-color="#782aff"/><stop offset=".45" stop-color="#445dff"/><stop offset=".85" stop-color="#019fff"/></linearGradient><linearGradient id="linear-gradient-2" x1="14.2" y1="2290.51" x2="14.2" y2="2286.85" gradientTransform="translate(0 -2283)" gradientUnits="userSpaceOnUse"><stop offset="0" stop-color="#fff" stop-opacity="0"/><stop offset=".85" stop-color="#000"/></linearGradient><linearGradient id="linear-gradient-3" x1="13.02" y1="2291.79" x2="8.63" y2="2285.52" gradientTransform="translate(0 -2283)" gradientUnits="userSpaceOnUse"><stop offset="0" stop-color="#fff" stop-opacity="0"/><stop offset=".8" stop-color="#000"/></linearGradient><linearGradient id="linear-gradient-4" x1="3.67" y1="2283.28" x2="7.44" y2="2287.77" xlink:href="#linear-gradient-2"/><linearGradient id="linear-gradient-5" x1="1.41" y1="2647.76" x2="5.52" y2="2653.63" gradientTransform="translate(0 2656.54) scale(1 -1)" xlink:href="#linear-gradient-3"/><linearGradient id="linear-gradient-6" x1="13.88" y1="1290.12" x2="15.81" y2="1288.87" gradientTransform="translate(-.07 1291.75) scale(1 -1)" gradientUnits="userSpaceOnUse"><stop offset=".15" stop-color="#000"/><stop offset="1" stop-color="#fff" stop-opacity="0"/></linearGradient></defs><path class="cls-6" d="M16,2.5c0,.2-.1,.3-.2,.4h0c-.2,.3-.4,.5-.8,.7-.2,.1-.4,.2-.7,.2h0c.1,0,.3,.2,.6,.6,.2,.3,.3,.7,.3,1.3h0c0,.1,0,.6-.3,1-.2,.3-.6,.6-1.1,.7l.4,.5v.1h-3.2l-1.8-2.1h0l-1.4,1.1h-2.4l-.1-.5-1.3,1.5H0L4.2,2,3.8,.1v-.1h3.3l.9,3.5,1.3-1.6h.1l.9,1.1h0l1.2-3h3.3s.5,.2,.8,.8c.3,.4,.4,.8,.4,1.3v.4Z"/><path class="cls-3" d="M15.2,5.8v.4c-.1,.3-.2,.5-.4,.7s-.3,.3-.5,.4c-.5,.3-1.1,.2-1.1,.2l.8-3.6h.3c.1,0,.2,.1,.3,.1,.1,.1,.2,.2,.2,.3s.1,.1,.1,.2c.2,.3,.2,.6,.3,.8v.5Z"/><polygon class="cls-5" points="9.4 2 14.2 8 10.9 8 9.2 5.8 9.4 2"/><path class="cls-1" d="M5.3,6.6l2.8-3L7.2,.1H3.9l1.4,6.5Z"/><polygon class="cls-2" points=".1 7.9 4.2 2 5.1 6.3 3.9 7.9 .1 7.9"/><path class="cls-4" d="M15.9,2.5c0,.1-.1,.3-.2,.4h0c-.1,.2-.4,.5-.7,.7-.1,.1-.3,.1-.4,.2l-.5,.1L14.8,.2c.2,.1,.6,.3,.9,.8,.2,.3,.3,.7,.3,1.2v.1c-.1-.1-.1,.2-.1,.2Z"/></svg>