<svg width="21" height="20" viewBox="0 0 21 20" fill="none" xmlns="http://www.w3.org/2000/svg">
<path d="M6.78944 9.64843L10.1583 7.65336L13.5272 9.64843V13.6608L10.1583 15.6558L6.78944 13.6608V9.64843Z" stroke="#2196F3"/>
<path d="M17.3069 16.1252C17.3069 16.6203 16.9188 16.9999 16.4667 16.9999C16.0145 16.9999 15.6265 16.6203 15.6265 16.1252C15.6265 15.6301 16.0145 15.2505 16.4667 15.2505C16.9188 15.2505 17.3069 15.6301 17.3069 16.1252Z" stroke="#2196F3"/>
<path d="M10.9988 3.8747C10.9988 4.36983 10.6107 4.7494 10.1586 4.7494C9.70644 4.7494 9.31836 4.36983 9.31836 3.8747C9.31836 3.37957 9.70644 3 10.1586 3C10.6107 3 10.9988 3.37957 10.9988 3.8747Z" stroke="#2196F3"/>
<path d="M4.98709 15.9499C4.98709 16.445 4.59902 16.8246 4.14687 16.8246C3.69472 16.8246 3.30664 16.445 3.30664 15.9499C3.30664 15.4548 3.69472 15.0752 4.14687 15.0752C4.59902 15.0752 4.98709 15.4548 4.98709 15.9499Z" stroke="#2196F3"/>
<line x1="10.082" y1="7.604" x2="10.082" y2="4.99957" stroke="#2196F3"/>
<line y1="-0.5" x2="2.56096" y2="-0.5" transform="matrix(-0.810691 -0.585474 0.565925 -0.824457 15.9219 15.1003)" stroke="#2196F3"/>
<line y1="-0.5" x2="2.57327" y2="-0.5" transform="matrix(0.75244 -0.65866 0.639584 0.768721 5.13672 15.7095)" stroke="#2196F3"/>
</svg>
